<?xml version="1.0" encoding="UTF-8"?>
<!DOCTYPE svg PUBLIC "-//W3C//DTD SVG 1.1//EN" "http://www.w3.org/Graphics/SVG/1.1/DTD/svg11.dtd">
<svg xmlns="http://www.w3.org/2000/svg" version="1.1" width="1169px" height="827px" style="shape-rendering:geometricPrecision; text-rendering:geometricPrecision; image-rendering:optimizeQuality; fill-rule:evenodd; clip-rule:evenodd" xmlns:xlink="http://www.w3.org/1999/xlink">
<g><path style="opacity:1" fill="#ececec" d="M 0.5,-0.5 C 389.833,-0.5 779.167,-0.5 1168.5,-0.5C 1168.5,274.833 1168.5,550.167 1168.5,825.5C 780.167,825.5 391.833,825.5 3.5,825.5C 391.333,824.5 779.333,824.167 1167.5,824.5C 1167.5,549.833 1167.5,275.167 1167.5,0.5C 778.833,0.5 390.167,0.5 1.5,0.5C 1.16756,275.57 1.50089,550.57 2.5,825.5C 0.500812,550.502 -0.165855,275.169 0.5,-0.5 Z"/></g>
<g><path style="opacity:1" fill="#fefefe" d="M 3.5,825.5 C 3.16667,825.5 2.83333,825.5 2.5,825.5C 1.50089,550.57 1.16756,275.57 1.5,0.5C 390.167,0.5 778.833,0.5 1167.5,0.5C 1167.5,275.167 1167.5,549.833 1167.5,824.5C 779.333,824.167 391.333,824.5 3.5,825.5 Z"/></g>
<g><path style="opacity:1" fill="#878988" d="M 96.5,226.5 C 301.333,225.5 506.333,225.167 711.5,225.5C 711.5,233.5 711.5,241.5 711.5,249.5C 710.508,242.018 710.175,234.352 710.5,226.5C 505.833,226.5 301.167,226.5 96.5,226.5 Z"/></g>
<g><path style="opacity:1" fill="#1b1c20" d="M 96.5,226.5 C 301.167,226.5 505.833,226.5 710.5,226.5C 710.175,234.352 710.508,242.018 711.5,249.5C 839.666,250.5 967.999,250.833 1096.5,250.5C 1096.5,254.167 1096.5,257.833 1096.5,261.5C 894.833,261.5 693.167,261.5 491.5,261.5C 491.5,271.5 491.5,281.5 491.5,291.5C 436.167,291.5 380.833,291.5 325.5,291.5C 325.5,281.5 325.5,271.5 325.5,261.5C 249.167,261.5 172.833,261.5 96.5,261.5C 96.5,249.833 96.5,238.167 96.5,226.5 Z"/></g>
<g><path style="opacity:1" fill="#8a8c8b" d="M 711.5,249.5 C 840.167,249.5 968.833,249.5 1097.5,249.5C 1097.82,253.702 1097.48,257.702 1096.5,261.5C 1096.5,257.833 1096.5,254.167 1096.5,250.5C 967.999,250.833 839.666,250.5 711.5,249.5 Z"/></g>
<g><path style="opacity:1" fill="#b2262b" d="M 325.5,291.5 C 380.833,291.5 436.167,291.5 491.5,291.5C 562.331,292.499 633.331,292.833 704.5,292.5C 704.5,300.5 704.5,308.5 704.5,316.5C 703.51,310.69 703.177,304.69 703.5,298.5C 703.5,297.5 703.5,296.5 703.5,295.5C 703.5,295.167 703.5,294.833 703.5,294.5C 501.667,293.5 299.667,293.167 97.5,293.5C 97.1793,304.748 97.5126,315.915 98.5,327C 152.499,327.5 206.499,327.667 260.5,327.5C 260.5,327.833 260.5,328.167 260.5,328.5C 205.833,328.5 151.167,328.5 96.5,328.5C 96.5,316.5 96.5,304.5 96.5,292.5C 173.002,292.833 249.335,292.499 325.5,291.5 Z"/></g>
<g><path style="opacity:1" fill="#de030b" d="M 703.5,294.5 C 505.167,294.5 306.833,294.5 108.5,294.5C 108.67,295.822 108.337,296.989 107.5,298C 106.049,297.737 104.716,297.904 103.5,298.5C 104.132,302.114 104.465,305.781 104.5,309.5C 104.029,315.213 103.362,320.88 102.5,326.5C 155.336,326.168 208.003,326.501 260.5,327.5C 206.499,327.667 152.499,327.5 98.5,327C 97.5126,315.915 97.1793,304.748 97.5,293.5C 299.667,293.167 501.667,293.5 703.5,294.5 Z"/></g>
<g><path style="opacity:1" fill="#e2020a" d="M 703.5,295.5 C 703.5,296.5 703.5,297.5 703.5,298.5C 505.606,299.774 307.939,299.774 110.5,298.5C 110.833,297.833 111.167,297.167 111.5,296.5C 146.167,296.167 180.833,295.833 215.5,295.5C 378.166,296.439 540.833,296.439 703.5,295.5 Z"/></g>
<g><path style="opacity:1" fill="#e60108" d="M 703.5,294.5 C 703.5,294.833 703.5,295.167 703.5,295.5C 540.833,296.439 378.166,296.439 215.5,295.5C 180.833,295.833 146.167,296.167 111.5,296.5C 111.167,297.167 110.833,297.833 110.5,298.5C 307.939,299.774 505.606,299.774 703.5,298.5C 703.177,304.69 703.51,310.69 704.5,316.5C 704.5,316.833 704.5,317.167 704.5,317.5C 629.84,319.331 554.84,320.164 479.5,320C 682.167,320.667 884.833,320.667 1087.5,320C 964.833,319.667 842.167,319.333 719.5,319C 843.514,318.172 967.514,318.339 1091.5,319.5C 1093.03,319.36 1094.03,318.693 1094.5,317.5C 1096.4,320.337 1097.07,323.671 1096.5,327.5C 894.833,327.5 693.167,327.5 491.5,327.5C 469.5,327.5 447.5,327.5 425.5,327.5C 424.501,383.664 424.168,439.998 424.5,496.5C 370.5,496.5 316.5,496.5 262.5,496.5C 262.832,440.664 262.499,384.998 261.5,329.5C 261.5,328.833 261.167,328.5 260.5,328.5C 260.5,328.167 260.5,327.833 260.5,327.5C 208.003,326.501 155.336,326.168 102.5,326.5C 103.362,320.88 104.029,315.213 104.5,309.5C 104.465,305.781 104.132,302.114 103.5,298.5C 104.716,297.904 106.049,297.737 107.5,298C 108.337,296.989 108.67,295.822 108.5,294.5C 306.833,294.5 505.167,294.5 703.5,294.5 Z"/></g>
<g><path style="opacity:1" fill="#f2fefe" d="M 1097.5,316.5 C 1033.67,315.167 969.503,314.5 905,314.5C 840.666,314.5 776.499,314.833 712.5,315.5C 711.5,315.5 710.5,315.5 709.5,315.5C 708.791,314.596 707.791,314.263 706.5,314.5C 706.334,307.825 706.5,301.158 707,294.5C 707.317,292.699 707.984,292.366 709,293.5C 709.192,291.423 709.692,289.423 710.5,287.5C 710.682,294.305 712.348,300.639 715.5,306.5C 714.167,306.5 712.833,306.5 711.5,306.5C 711.216,303.746 710.549,301.08 709.5,298.5C 708.914,298.709 708.414,299.043 708,299.5C 708.196,303.791 708.363,308.124 708.5,312.5C 711.579,312.26 714.579,312.593 717.5,313.5C 842.793,312.668 968.127,312.168 1093.5,312C 1093.83,311.667 1094.17,311.333 1094.5,311C 1092.83,310.667 1091.17,310.333 1089.5,310C 1088.17,309.333 1088.17,308.667 1089.5,308C 1092.03,308.611 1094.7,309.111 1097.5,309.5C 1097.5,310.833 1097.5,312.167 1097.5,313.5C 1098.5,313.5 1099.5,313.5 1100.5,313.5C 1100.82,317.555 1100.49,321.555 1099.5,325.5C 1098.83,322.358 1098.17,319.358 1097.5,316.5 Z"/></g>
<g><path style="opacity:1" fill="#fef7f5" d="M 712.5,315.5 C 776.499,314.833 840.666,314.5 905,314.5C 969.503,314.5 1033.67,315.167 1097.5,316.5C 1097.17,316.5 1096.83,316.5 1096.5,316.5C 968.668,315.5 840.668,315.167 712.5,315.5 Z"/></g>
<g><path style="opacity:1" fill="#ffbac3" d="M 704.5,292.5 C 705.492,299.982 705.825,307.648 705.5,315.5C 706.833,315.5 708.167,315.5 709.5,315.5C 710.5,315.5 711.5,315.5 712.5,315.5C 840.668,315.167 968.668,315.5 1096.5,316.5C 965.833,316.5 835.167,316.5 704.5,316.5C 704.5,308.5 704.5,300.5 704.5,292.5 Z"/></g>
<g><path style="opacity:1" fill="#c83d3f" d="M 704.5,317.5 C 704.5,317.167 704.5,316.833 704.5,316.5C 835.167,316.5 965.833,316.5 1096.5,316.5C 1096.83,316.5 1097.17,316.5 1097.5,316.5C 1097.5,320.5 1097.5,324.5 1097.5,328.5C 895.5,328.5 693.5,328.5 491.5,328.5C 491.5,328.167 491.5,327.833 491.5,327.5C 693.167,327.5 894.833,327.5 1096.5,327.5C 1097.07,323.671 1096.4,320.337 1094.5,317.5C 964.5,317.5 834.5,317.5 704.5,317.5 Z"/></g>
<g><path style="opacity:1" fill="#dd0403" d="M 704.5,317.5 C 834.5,317.5 964.5,317.5 1094.5,317.5C 1094.03,318.693 1093.03,319.36 1091.5,319.5C 967.514,318.339 843.514,318.172 719.5,319C 842.167,319.333 964.833,319.667 1087.5,320C 884.833,320.667 682.167,320.667 479.5,320C 554.84,320.164 629.84,319.331 704.5,317.5 Z"/></g>
<g><path style="opacity:1" fill="#1c1d21" d="M 491.5,328.5 C 491.5,384.5 491.5,440.5 491.5,496.5C 469.833,496.5 448.167,496.5 426.5,496.5C 426.5,440.5 426.5,384.5 426.5,328.5C 448.167,328.5 469.833,328.5 491.5,328.5 Z"/></g>
<g><path style="opacity:1" fill="#781014" d="M 425.5,327.5 C 447.5,327.5 469.5,327.5 491.5,327.5C 491.5,327.833 491.5,328.167 491.5,328.5C 469.833,328.5 448.167,328.5 426.5,328.5C 426.5,384.5 426.5,440.5 426.5,496.5C 426.167,496.5 425.833,496.5 425.5,496.5C 425.5,440.167 425.5,383.833 425.5,327.5 Z"/></g>
<g><path style="opacity:1" fill="#e50108" d="M 710.5,366.5 C 710.177,372.69 710.51,378.69 711.5,384.5C 711.5,384.833 711.5,385.167 711.5,385.5C 711.842,386.338 712.508,386.672 713.5,386.5C 713.821,388.048 714.821,388.715 716.5,388.5C 715.817,390.176 714.483,390.843 712.5,390.5C 712.5,389.5 712.5,388.5 712.5,387.5C 709.467,387.132 706.8,387.798 704.5,389.5C 650.833,389.5 597.167,389.5 543.5,389.5C 543.5,388.5 543.5,387.5 543.5,386.5C 756.833,385.833 756.833,385.167 543.5,384.5C 542.791,383.596 541.791,383.263 540.5,383.5C 540.5,376.5 540.5,369.5 540.5,362.5C 595.833,362.5 651.167,362.5 706.5,362.5C 706.5,363.5 706.5,364.5 706.5,365.5C 707.959,365.433 709.292,365.766 710.5,366.5 Z"/></g>
<g><path style="opacity:1" fill="#ce4e4e" d="M 711.5,384.5 C 710.51,378.69 710.177,372.69 710.5,366.5C 710.5,364.833 710.5,363.167 710.5,361.5C 652.167,361.5 593.833,361.5 535.5,361.5C 535.5,372.833 535.5,384.167 535.5,395.5C 534.505,384.012 534.172,372.345 534.5,360.5C 593.5,360.5 652.5,360.5 711.5,360.5C 711.5,368.5 711.5,376.5 711.5,384.5 Z"/></g>
<g><path style="opacity:1" fill="#ec0002" d="M 543.5,384.5 C 756.833,385.167 756.833,385.833 543.5,386.5C 543.5,387.5 543.5,388.5 543.5,389.5C 597.167,389.5 650.833,389.5 704.5,389.5C 650.003,390.499 595.336,390.832 540.5,390.5C 540.719,389.325 540.386,388.325 539.5,387.5C 538.548,389.045 538.215,390.712 538.5,392.5C 721.472,392.828 904.472,392.828 1087.5,392.5C 1087.5,391.5 1087.5,390.5 1087.5,389.5C 1088.83,389.5 1090.17,389.5 1091.5,389.5C 1091.5,390.833 1091.5,392.167 1091.5,393.5C 1092.79,393.263 1093.79,393.596 1094.5,394.5C 908.5,394.5 722.5,394.5 536.5,394.5C 536.168,383.813 536.501,373.146 537.5,362.5C 538.497,369.803 538.831,377.137 538.5,384.5C 540.167,384.5 541.833,384.5 543.5,384.5 Z"/></g>
<g><path style="opacity:1" fill="#d30e0f" d="M 710.5,366.5 C 709.292,365.766 707.959,365.433 706.5,365.5C 706.5,364.5 706.5,363.5 706.5,362.5C 651.167,362.5 595.833,362.5 540.5,362.5C 540.5,369.5 540.5,376.5 540.5,383.5C 541.791,383.263 542.791,383.596 543.5,384.5C 541.833,384.5 540.167,384.5 538.5,384.5C 538.831,377.137 538.497,369.803 537.5,362.5C 536.501,373.146 536.168,383.813 536.5,394.5C 722.5,394.5 908.5,394.5 1094.5,394.5C 1095.47,392.052 1095.81,389.385 1095.5,386.5C 1092.83,386.5 1090.17,386.5 1087.5,386.5C 962.833,386.5 838.167,386.5 713.5,386.5C 712.508,386.672 711.842,386.338 711.5,385.5C 839.833,385.5 968.167,385.5 1096.5,385.5C 1096.5,388.833 1096.5,392.167 1096.5,395.5C 909.5,395.5 722.5,395.5 535.5,395.5C 535.5,384.167 535.5,372.833 535.5,361.5C 593.833,361.5 652.167,361.5 710.5,361.5C 710.5,363.167 710.5,364.833 710.5,366.5 Z"/></g>
<g><path style="opacity:1" fill="#e0010d" d="M 1087.5,386.5 C 1090.17,386.5 1092.83,386.5 1095.5,386.5C 1095.81,389.385 1095.47,392.052 1094.5,394.5C 1093.79,393.596 1092.79,393.263 1091.5,393.5C 1091.5,392.167 1091.5,390.833 1091.5,389.5C 1090.17,389.5 1088.83,389.5 1087.5,389.5C 1087.5,390.5 1087.5,391.5 1087.5,392.5C 904.472,392.828 721.472,392.828 538.5,392.5C 538.215,390.712 538.548,389.045 539.5,387.5C 540.386,388.325 540.719,389.325 540.5,390.5C 595.336,390.832 650.003,390.499 704.5,389.5C 706.8,387.798 709.467,387.132 712.5,387.5C 712.5,388.5 712.5,389.5 712.5,390.5C 714.483,390.843 715.817,390.176 716.5,388.5C 778.686,388.16 841.019,388.16 903.5,388.5C 965.17,388.5 1026.5,387.833 1087.5,386.5 Z"/></g>
<g><path style="opacity:1" fill="#f00002" d="M 713.5,386.5 C 838.167,386.5 962.833,386.5 1087.5,386.5C 1026.5,387.833 965.17,388.5 903.5,388.5C 841.019,388.16 778.686,388.16 716.5,388.5C 714.821,388.715 713.821,388.048 713.5,386.5 Z"/></g>
<g><path style="opacity:1" fill="#feced3" d="M 535.5,395.5 C 722.5,395.5 909.5,395.5 1096.5,395.5C 1093.69,396.319 1090.69,396.819 1087.5,397C 903.331,397.833 719.331,397.333 535.5,395.5 Z"/></g>
<g><path style="opacity:1" fill="#ebfefc" d="M 711.5,424.5 C 653.5,424.5 595.5,424.5 537.5,424.5C 537.62,423.414 538.287,422.747 539.5,422.5C 596.735,422.351 654.068,422.517 711.5,423C 712.738,423.69 712.738,424.19 711.5,424.5 Z"/></g>
<g><path style="opacity:1" fill="#fee9f1" d="M 537.5,424.5 C 595.5,424.5 653.5,424.5 711.5,424.5C 711.5,424.833 711.5,425.167 711.5,425.5C 652.664,425.168 593.998,425.501 535.5,426.5C 535.167,426.5 534.833,426.5 534.5,426.5C 534.821,424.952 535.821,424.285 537.5,424.5 Z"/></g>
<g><path style="opacity:1" fill="#ea646d" d="M 535.5,426.5 C 593.998,425.501 652.664,425.168 711.5,425.5C 711.5,433.833 711.5,442.167 711.5,450.5C 711.167,450.5 710.833,450.5 710.5,450.5C 710.5,442.5 710.5,434.5 710.5,426.5C 652.167,426.5 593.833,426.5 535.5,426.5 Z"/></g>
<g><path style="opacity:1" fill="#e60107" d="M 535.5,426.5 C 593.833,426.5 652.167,426.5 710.5,426.5C 710.5,434.5 710.5,442.5 710.5,450.5C 655.089,452.438 599.422,453.105 543.5,452.5C 543.5,453.5 543.5,454.5 543.5,455.5C 596.833,455.5 650.167,455.5 703.5,455.5C 706.187,455.664 708.854,455.497 711.5,455C 712.308,454.692 712.975,454.192 713.5,453.5C 840.498,452.5 967.498,452.167 1094.5,452.5C 1095.04,455.698 1094.37,458.365 1092.5,460.5C 1092.5,458.5 1092.5,456.5 1092.5,454.5C 1090.86,454.714 1089.36,454.38 1088,453.5C 1087.51,454.793 1087.34,456.127 1087.5,457.5C 964.833,457.333 842.166,457.5 719.5,458C 718.748,458.671 718.414,459.504 718.5,460.5C 657.5,460.5 596.5,460.5 535.5,460.5C 535.5,449.167 535.5,437.833 535.5,426.5 Z"/></g>
<g><path style="opacity:1" fill="#ffdcdd" d="M 711.5,425.5 C 712.492,433.316 712.826,441.316 712.5,449.5C 840.334,449.167 968.001,449.5 1095.5,450.5C 967.5,450.5 839.5,450.5 711.5,450.5C 711.5,442.167 711.5,433.833 711.5,425.5 Z"/></g>
<g><path style="opacity:1" fill="#ce3633" d="M 534.5,426.5 C 534.833,426.5 535.167,426.5 535.5,426.5C 535.5,437.833 535.5,449.167 535.5,460.5C 596.5,460.5 657.5,460.5 718.5,460.5C 843.167,460.5 967.833,460.5 1092.5,460.5C 1094.37,458.365 1095.04,455.698 1094.5,452.5C 967.001,451.5 839.334,451.167 711.5,451.5C 711.5,451.167 711.5,450.833 711.5,450.5C 839.5,450.5 967.5,450.5 1095.5,450.5C 1095.5,454.167 1095.5,457.833 1095.5,461.5C 908.5,461.5 721.5,461.5 534.5,461.5C 534.5,449.833 534.5,438.167 534.5,426.5 Z"/></g>
<g><path style="opacity:1" fill="#e4020d" d="M 1092.5,460.5 C 967.833,460.5 843.167,460.5 718.5,460.5C 718.414,459.504 718.748,458.671 719.5,458C 842.166,457.5 964.833,457.333 1087.5,457.5C 1087.34,456.127 1087.51,454.793 1088,453.5C 1089.36,454.38 1090.86,454.714 1092.5,454.5C 1092.5,456.5 1092.5,458.5 1092.5,460.5 Z"/></g>
<g><path style="opacity:1" fill="#ec0009" d="M 710.5,450.5 C 710.833,450.5 711.167,450.5 711.5,450.5C 711.5,450.833 711.5,451.167 711.5,451.5C 708.833,452.833 706.167,454.167 703.5,455.5C 650.167,455.5 596.833,455.5 543.5,455.5C 543.5,454.5 543.5,453.5 543.5,452.5C 599.422,453.105 655.089,452.438 710.5,450.5 Z"/></g>
<g><path style="opacity:1" fill="#d9040a" d="M 711.5,451.5 C 839.334,451.167 967.001,451.5 1094.5,452.5C 967.498,452.167 840.498,452.5 713.5,453.5C 712.975,454.192 712.308,454.692 711.5,455C 708.854,455.497 706.187,455.664 703.5,455.5C 706.167,454.167 708.833,452.833 711.5,451.5 Z"/></g>
<g><path style="opacity:1" fill="#d10a0e" d="M 425.5,327.5 C 425.5,383.833 425.5,440.167 425.5,496.5C 371.003,497.499 316.336,497.832 261.5,497.5C 261.5,441.5 261.5,385.5 261.5,329.5C 262.499,384.998 262.832,440.664 262.5,496.5C 316.5,496.5 370.5,496.5 424.5,496.5C 424.168,439.998 424.501,383.664 425.5,327.5 Z"/></g>
<g><path style="opacity:1" fill="#ae3132" d="M 260.5,328.5 C 261.167,328.5 261.5,328.833 261.5,329.5C 261.5,385.5 261.5,441.5 261.5,497.5C 316.336,497.832 371.003,497.499 425.5,496.5C 425.833,496.5 426.167,496.5 426.5,496.5C 371.51,498.496 316.177,499.163 260.5,498.5C 260.5,441.833 260.5,385.167 260.5,328.5 Z"/></g>
<g><path style="opacity:1" fill="#59595a" d="M 96.5,518.5 C 113.659,517.503 130.992,517.17 148.5,517.5C 148.818,522.032 148.485,526.366 147.5,530.5C 147.5,526.5 147.5,522.5 147.5,518.5C 130.5,518.5 113.5,518.5 96.5,518.5 Z"/></g>
<g><path style="opacity:1" fill="#1b1c20" d="M 269.5,517.5 C 273.807,518.067 276.64,520.4 278,524.5C 278.667,534.833 278.667,545.167 278,555.5C 277.13,560.37 274.297,563.203 269.5,564C 258.839,564.5 248.172,564.667 237.5,564.5C 236.508,572.316 236.174,580.316 236.5,588.5C 231.167,588.5 225.833,588.5 220.5,588.5C 220.5,564.833 220.5,541.167 220.5,517.5C 236.833,517.5 253.167,517.5 269.5,517.5 Z"/></g>
<g><path style="opacity:1" fill="#4f4f51" d="M 461.5,530.5 C 461.5,526.5 461.5,522.5 461.5,518.5C 444.833,518.5 428.167,518.5 411.5,518.5C 411.5,522.5 411.5,526.5 411.5,530.5C 410.515,526.366 410.182,522.032 410.5,517.5C 427.833,517.5 445.167,517.5 462.5,517.5C 462.818,522.032 462.485,526.366 461.5,530.5 Z"/></g>
<g><path style="opacity:1" fill="#1c1d20" d="M 669.5,516.5 C 683.504,516.333 697.504,516.5 711.5,517C 714.937,518.105 717.437,520.272 719,523.5C 719.958,535.596 719.625,547.596 718,559.5C 716.363,561.81 714.196,563.31 711.5,564C 697.167,564.667 682.833,564.667 668.5,564C 664.667,562.833 662.167,560.333 661,556.5C 660.333,545.833 660.333,535.167 661,524.5C 662.445,520.218 665.278,517.551 669.5,516.5 Z"/></g>
<g><path style="opacity:1" fill="#1c1d21" d="M 919.5,517.5 C 936.503,517.333 953.503,517.5 970.5,518C 973.583,518.786 975.749,520.619 977,523.5C 978.59,533.426 978.923,543.426 978,553.5C 977.345,558.816 974.512,562.316 969.5,564C 958.505,564.5 947.505,564.667 936.5,564.5C 935.508,572.316 935.174,580.316 935.5,588.5C 930.167,588.5 924.833,588.5 919.5,588.5C 919.5,564.833 919.5,541.167 919.5,517.5 Z"/></g>
<g><path style="opacity:1" fill="#575759" d="M 1003.5,531.5 C 1012.65,530.506 1021.99,530.173 1031.5,530.5C 1031.5,526.5 1031.5,522.5 1031.5,518.5C 1016.5,518.5 1001.5,518.5 986.5,518.5C 986.5,533.833 986.5,549.167 986.5,564.5C 985.504,549.009 985.17,533.342 985.5,517.5C 1001.17,517.5 1016.83,517.5 1032.5,517.5C 1032.5,522.167 1032.5,526.833 1032.5,531.5C 1022.83,531.5 1013.17,531.5 1003.5,531.5 Z"/></g>
<g><path style="opacity:1" fill="#1d1d21" d="M 1046.5,516.5 C 1060.17,516.333 1073.84,516.5 1087.5,517C 1091.5,517.668 1094.33,519.835 1096,523.5C 1096.94,535.571 1096.6,547.571 1095,559.5C 1093.05,561.894 1090.55,563.394 1087.5,564C 1073.17,564.667 1058.83,564.667 1044.5,564C 1041.24,562.413 1039.08,559.913 1038,556.5C 1037.33,545.833 1037.33,535.167 1038,524.5C 1039.42,520.245 1042.25,517.578 1046.5,516.5 Z"/></g>
<g><path style="opacity:1" fill="#1c1d21" d="M 96.5,518.5 C 113.5,518.5 130.5,518.5 147.5,518.5C 147.5,522.5 147.5,526.5 147.5,530.5C 141.833,530.5 136.167,530.5 130.5,530.5C 130.5,541.833 130.5,553.167 130.5,564.5C 124.833,564.5 119.167,564.5 113.5,564.5C 113.5,553.167 113.5,541.833 113.5,530.5C 107.833,530.5 102.167,530.5 96.5,530.5C 96.5,526.5 96.5,522.5 96.5,518.5 Z"/></g>
<g><path style="opacity:1" fill="#434444" d="M 170.5,517.5 C 170.5,517.833 170.5,518.167 170.5,518.5C 165.167,518.5 159.833,518.5 154.5,518.5C 154.5,533.833 154.5,549.167 154.5,564.5C 153.504,549.009 153.17,533.342 153.5,517.5C 159.167,517.5 164.833,517.5 170.5,517.5 Z"/></g>
<g><path style="opacity:1" fill="#1e1e22" d="M 362.5,517.5 C 376.5,517.5 390.5,517.5 404.5,517.5C 404.5,521.833 404.5,526.167 404.5,530.5C 393.5,530.5 382.5,530.5 371.5,530.5C 371.5,537.5 371.5,544.5 371.5,551.5C 382.5,551.5 393.5,551.5 404.5,551.5C 404.5,555.833 404.5,560.167 404.5,564.5C 390.496,564.667 376.496,564.5 362.5,564C 359.804,563.31 357.637,561.81 356,559.5C 354.398,547.905 354.065,536.238 355,524.5C 356.742,521.254 359.242,518.921 362.5,517.5 Z"/></g>
<g><path style="opacity:1" fill="#1f1f23" d="M 727.5,517.5 C 743.904,517.045 760.237,517.545 776.5,519C 779,520.167 780.833,522 782,524.5C 782.667,535.167 782.667,545.833 782,556.5C 781.31,559.196 779.81,561.363 777.5,563C 760.89,564.441 744.223,564.941 727.5,564.5C 727.5,560.167 727.5,555.833 727.5,551.5C 740.167,551.5 752.833,551.5 765.5,551.5C 765.5,550.167 765.5,548.833 765.5,547.5C 757.167,547.5 748.833,547.5 740.5,547.5C 740.5,543.167 740.5,538.833 740.5,534.5C 748.833,534.5 757.167,534.5 765.5,534.5C 765.5,533.167 765.5,531.833 765.5,530.5C 752.833,530.5 740.167,530.5 727.5,530.5C 727.5,526.167 727.5,521.833 727.5,517.5 Z"/></g>
<g><path style="opacity:1" fill="#656567" d="M 808.5,532.5 C 807.514,528.03 807.181,523.363 807.5,518.5C 802.167,518.5 796.833,518.5 791.5,518.5C 791.5,533.833 791.5,549.167 791.5,564.5C 790.504,549.009 790.17,533.342 790.5,517.5C 796.5,517.5 802.5,517.5 808.5,517.5C 808.5,522.5 808.5,527.5 808.5,532.5 Z"/></g>
<g><path style="opacity:1" fill="#1c1d21" d="M 808.5,532.5 C 815.167,532.5 821.833,532.5 828.5,532.5C 829.486,528.03 829.819,523.363 829.5,518.5C 834.833,518.5 840.167,518.5 845.5,518.5C 845.5,533.833 845.5,549.167 845.5,564.5C 840.167,564.5 834.833,564.5 829.5,564.5C 829.5,558.5 829.5,552.5 829.5,546.5C 822.5,546.5 815.5,546.5 808.5,546.5C 808.5,552.5 808.5,558.5 808.5,564.5C 802.833,564.5 797.167,564.5 791.5,564.5C 791.5,549.167 791.5,533.833 791.5,518.5C 796.833,518.5 802.167,518.5 807.5,518.5C 807.181,523.363 807.514,528.03 808.5,532.5 Z"/></g>
<g><path style="opacity:1" fill="#1b1c1f" d="M 1003.5,531.5 C 1002.51,542.321 1002.17,553.321 1002.5,564.5C 997.167,564.5 991.833,564.5 986.5,564.5C 986.5,549.167 986.5,533.833 986.5,518.5C 1001.5,518.5 1016.5,518.5 1031.5,518.5C 1031.5,522.5 1031.5,526.5 1031.5,530.5C 1021.99,530.173 1012.65,530.506 1003.5,531.5 Z"/></g>
<g><path style="opacity:1" fill="#1b1c20" d="M 154.5,564.5 C 154.5,549.167 154.5,533.833 154.5,518.5C 159.833,518.5 165.167,518.5 170.5,518.5C 170.169,526.86 170.502,535.193 171.5,543.5C 172.107,543.376 172.44,543.043 172.5,542.5C 179.626,534.204 186.959,526.037 194.5,518C 200.491,517.501 206.491,517.334 212.5,517.5C 212.5,533.167 212.5,548.833 212.5,564.5C 206.833,564.5 201.167,564.5 195.5,564.5C 195.666,555.494 195.5,546.494 195,537.5C 186.833,546.333 178.667,555.167 170.5,564C 165.177,564.499 159.844,564.666 154.5,564.5 Z"/></g>
<g><path style="opacity:1" fill="#aaaaab" d="M 170.5,517.5 C 171.167,525.833 171.833,534.167 172.5,542.5C 172.44,543.043 172.107,543.376 171.5,543.5C 170.502,535.193 170.169,526.86 170.5,518.5C 170.5,518.167 170.5,517.833 170.5,517.5 Z"/></g>
<g><path style="opacity:1" fill="#1d1e22" d="M 297.5,535.5 C 306.5,535.5 315.5,535.5 324.5,535.5C 324.5,539.167 324.5,542.833 324.5,546.5C 317.646,546.176 310.979,546.509 304.5,547.5C 304.5,548.833 304.5,550.167 304.5,551.5C 312.5,551.5 320.5,551.5 328.5,551.5C 329.491,544.687 329.825,537.687 329.5,530.5C 316.167,530.5 302.833,530.5 289.5,530.5C 289.5,526.167 289.5,521.833 289.5,517.5C 305.17,517.333 320.837,517.5 336.5,518C 341.113,518.717 344.28,521.217 346,525.5C 346.5,538.496 346.667,551.496 346.5,564.5C 329.83,564.667 313.163,564.5 296.5,564C 288.798,560.26 285.631,554.093 287,545.5C 288.427,539.905 291.927,536.572 297.5,535.5 Z"/></g>
<g><path style="opacity:1" fill="#1f2024" d="M 461.5,530.5 C 456.167,530.5 450.833,530.5 445.5,530.5C 445.5,541.833 445.5,553.167 445.5,564.5C 439.5,564.5 433.5,564.5 427.5,564.5C 427.5,553.167 427.5,541.833 427.5,530.5C 422.167,530.5 416.833,530.5 411.5,530.5C 411.5,526.5 411.5,522.5 411.5,518.5C 428.167,518.5 444.833,518.5 461.5,518.5C 461.5,522.5 461.5,526.5 461.5,530.5 Z"/></g>
<g><path style="opacity:1" fill="#636467" d="M 845.5,564.5 C 845.5,549.167 845.5,533.833 845.5,518.5C 840.167,518.5 834.833,518.5 829.5,518.5C 829.819,523.363 829.486,528.03 828.5,532.5C 828.5,527.5 828.5,522.5 828.5,517.5C 834.5,517.5 840.5,517.5 846.5,517.5C 846.83,533.342 846.496,549.009 845.5,564.5 Z"/></g>
<g><path style="opacity:1" fill="#1d1e22" d="M 911.5,527.5 C 911.5,533.833 911.5,540.167 911.5,546.5C 899.833,546.5 888.167,546.5 876.5,546.5C 876.5,542.833 876.5,539.167 876.5,535.5C 883.354,535.824 890.021,535.491 896.5,534.5C 896.5,533.167 896.5,531.833 896.5,530.5C 888.167,530.5 879.833,530.5 871.5,530.5C 871.5,537.5 871.5,544.5 871.5,551.5C 884.833,551.5 898.167,551.5 911.5,551.5C 911.5,555.833 911.5,560.167 911.5,564.5C 895.163,564.667 878.83,564.5 862.5,564C 859.063,562.895 856.563,560.728 855,557.5C 854.333,546.5 854.333,535.5 855,524.5C 856.563,521.272 859.063,519.105 862.5,518C 876.167,517.333 889.833,517.333 903.5,518C 908.178,519.546 910.844,522.713 911.5,527.5 Z"/></g>
<g><path style="opacity:1" fill="#1d1e21" d="M 525.5,527.5 C 525.5,533.833 525.5,540.167 525.5,546.5C 513.833,546.5 502.167,546.5 490.5,546.5C 490.5,542.833 490.5,539.167 490.5,535.5C 497.354,535.824 504.021,535.491 510.5,534.5C 510.5,533.167 510.5,531.833 510.5,530.5C 502.167,530.5 493.833,530.5 485.5,530.5C 485.5,537.5 485.5,544.5 485.5,551.5C 498.833,551.5 512.167,551.5 525.5,551.5C 525.5,555.833 525.5,560.167 525.5,564.5C 508.83,564.667 492.163,564.5 475.5,564C 472.244,562.413 470.077,559.913 469,556.5C 468.333,545.833 468.333,535.167 469,524.5C 470.563,521.272 473.063,519.105 476.5,518C 490.167,517.333 503.833,517.333 517.5,518C 522.201,519.528 524.868,522.695 525.5,527.5 Z"/></g>
<g><path style="opacity:1" fill="#1d1d21" d="M 594.5,564.5 C 594.5,560.167 594.5,555.833 594.5,551.5C 595.791,551.737 596.791,551.404 597.5,550.5C 597.334,542.16 597.5,533.827 598,525.5C 599.27,521.23 602.104,518.73 606.5,518C 621.83,517.5 637.163,517.333 652.5,517.5C 652.5,533.167 652.5,548.833 652.5,564.5C 646.833,564.5 641.167,564.5 635.5,564.5C 635.5,553.167 635.5,541.833 635.5,530.5C 628.5,530.5 621.5,530.5 614.5,530.5C 614.5,541.833 614.5,553.167 614.5,564.5C 607.833,564.5 601.167,564.5 594.5,564.5 Z"/></g>
<g><path style="opacity:1" fill="#5f6060" d="M 588.5,564.5 C 588.5,549.167 588.5,533.833 588.5,518.5C 570.5,518.5 552.5,518.5 534.5,518.5C 534.5,533.833 534.5,549.167 534.5,564.5C 533.504,549.009 533.17,533.342 533.5,517.5C 552.167,517.5 570.833,517.5 589.5,517.5C 589.83,533.342 589.496,549.009 588.5,564.5 Z"/></g>
<g><path style="opacity:1" fill="#1d1e21" d="M 588.5,564.5 C 583.167,564.5 577.833,564.5 572.5,564.5C 572.5,553.167 572.5,541.833 572.5,530.5C 565.5,530.5 558.5,530.5 551.5,530.5C 551.5,541.833 551.5,553.167 551.5,564.5C 545.833,564.5 540.167,564.5 534.5,564.5C 534.5,549.167 534.5,533.833 534.5,518.5C 552.5,518.5 570.5,518.5 588.5,518.5C 588.5,533.833 588.5,549.167 588.5,564.5 Z"/></g>
<g><path style="opacity:1" fill="#fdfdfd" d="M 702.5,529.5 C 702.5,536.833 702.5,544.167 702.5,551.5C 694.167,551.5 685.833,551.5 677.5,551.5C 677.5,544.167 677.5,536.833 677.5,529.5C 685.833,529.5 694.167,529.5 702.5,529.5 Z"/></g>
<g><path style="opacity:1" fill="#fdfdfd" d="M 1054.5,529.5 C 1062.83,529.5 1071.17,529.5 1079.5,529.5C 1079.5,536.833 1079.5,544.167 1079.5,551.5C 1071.17,551.5 1062.83,551.5 1054.5,551.5C 1054.5,544.167 1054.5,536.833 1054.5,529.5 Z"/></g>
<g><path style="opacity:1" fill="#fbfcfb" d="M 261.5,530.5 C 261.5,537.167 261.5,543.833 261.5,550.5C 253.5,550.5 245.5,550.5 237.5,550.5C 237.5,543.833 237.5,537.167 237.5,530.5C 245.5,530.5 253.5,530.5 261.5,530.5 Z"/></g>
<g><path style="opacity:1" fill="#d6d6d8" d="M 289.5,530.5 C 302.833,530.5 316.167,530.5 329.5,530.5C 329.825,537.687 329.491,544.687 328.5,551.5C 328.5,544.833 328.5,538.167 328.5,531.5C 315.323,531.829 302.323,531.495 289.5,530.5 Z"/></g>
<g><path style="opacity:1" fill="#fbfcfc" d="M 936.5,530.5 C 944.5,530.5 952.5,530.5 960.5,530.5C 960.5,537.167 960.5,543.833 960.5,550.5C 952.5,550.5 944.5,550.5 936.5,550.5C 936.5,543.833 936.5,537.167 936.5,530.5 Z"/></g>
<g><path style="opacity:1" fill="#8a8a8d" d="M 261.5,530.5 C 253.5,530.5 245.5,530.5 237.5,530.5C 237.5,537.167 237.5,543.833 237.5,550.5C 236.509,543.687 236.175,536.687 236.5,529.5C 245.017,529.174 253.35,529.507 261.5,530.5 Z"/></g>
<g><path style="opacity:1" fill="#7e7f80" d="M 297.5,535.5 C 306.652,534.506 315.985,534.173 325.5,534.5C 325.5,538.833 325.5,543.167 325.5,547.5C 318.5,547.5 311.5,547.5 304.5,547.5C 310.979,546.509 317.646,546.176 324.5,546.5C 324.5,542.833 324.5,539.167 324.5,535.5C 315.5,535.5 306.5,535.5 297.5,535.5 Z"/></g>
<g><path style="opacity:1" fill="#85868a" d="M 936.5,530.5 C 944.65,529.507 952.983,529.174 961.5,529.5C 961.825,536.687 961.491,543.687 960.5,550.5C 960.5,543.833 960.5,537.167 960.5,530.5C 952.5,530.5 944.5,530.5 936.5,530.5 Z"/></g>
<g><path style="opacity:1" fill="#676869" d="M 525.5,527.5 C 526.491,533.979 526.824,540.646 526.5,547.5C 514.167,547.5 501.833,547.5 489.5,547.5C 489.5,543.167 489.5,538.833 489.5,534.5C 496.5,534.5 503.5,534.5 510.5,534.5C 504.021,535.491 497.354,535.824 490.5,535.5C 490.5,539.167 490.5,542.833 490.5,546.5C 502.167,546.5 513.833,546.5 525.5,546.5C 525.5,540.167 525.5,533.833 525.5,527.5 Z"/></g>
<g><path style="opacity:1" fill="#686a69" d="M 911.5,527.5 C 912.491,533.979 912.824,540.646 912.5,547.5C 900.167,547.5 887.833,547.5 875.5,547.5C 875.5,543.167 875.5,538.833 875.5,534.5C 882.5,534.5 889.5,534.5 896.5,534.5C 890.021,535.491 883.354,535.824 876.5,535.5C 876.5,539.167 876.5,542.833 876.5,546.5C 888.167,546.5 899.833,546.5 911.5,546.5C 911.5,540.167 911.5,533.833 911.5,527.5 Z"/></g>
<g><path style="opacity:1" fill="#3e3f40" d="M 702.5,529.5 C 703.492,536.982 703.825,544.648 703.5,552.5C 694.651,552.826 685.984,552.493 677.5,551.5C 685.833,551.5 694.167,551.5 702.5,551.5C 702.5,544.167 702.5,536.833 702.5,529.5 Z"/></g>
<g><path style="opacity:1" fill="#808082" d="M 269.5,517.5 C 253.167,517.5 236.833,517.5 220.5,517.5C 220.5,541.167 220.5,564.833 220.5,588.5C 225.833,588.5 231.167,588.5 236.5,588.5C 236.174,580.316 236.508,572.316 237.5,564.5C 237.5,572.833 237.5,581.167 237.5,589.5C 231.5,589.5 225.5,589.5 219.5,589.5C 219.5,565.167 219.5,540.833 219.5,516.5C 236.342,516.17 253.008,516.503 269.5,517.5 Z"/></g>
<g><path style="opacity:1" fill="#58585a" d="M 597.5,550.5 C 596.791,551.404 595.791,551.737 594.5,551.5C 594.5,555.833 594.5,560.167 594.5,564.5C 593.514,560.03 593.181,555.363 593.5,550.5C 594.833,550.5 596.167,550.5 597.5,550.5 Z"/></g>
<g><path style="opacity:1" fill="#7d7e7f" d="M 919.5,517.5 C 919.5,541.167 919.5,564.833 919.5,588.5C 924.833,588.5 930.167,588.5 935.5,588.5C 935.174,580.316 935.508,572.316 936.5,564.5C 936.5,572.833 936.5,581.167 936.5,589.5C 930.5,589.5 924.5,589.5 918.5,589.5C 918.169,565.328 918.502,541.328 919.5,517.5 Z"/></g>
<g><path style="opacity:1" fill="#626364" d="M -0.5,-0.5 C -0.166667,-0.5 0.166667,-0.5 0.5,-0.5C -0.165855,275.169 0.500812,550.502 2.5,825.5C 2.83333,825.5 3.16667,825.5 3.5,825.5C 391.833,825.5 780.167,825.5 1168.5,825.5C 1168.5,825.833 1168.5,826.167 1168.5,826.5C 778.833,826.5 389.167,826.5 -0.5,826.5C -0.5,550.833 -0.5,275.167 -0.5,-0.5 Z"/></g>
</svg>
